<?xml version="1.0" encoding="UTF-8"?>
<svg xmlns="http://www.w3.org/2000/svg" xmlns:xlink="http://www.w3.org/1999/xlink" width="810pt" height="809.999993pt" viewBox="0 0 810 809.999993" version="1.2">
<defs>
<clipPath id="clip1">
  <path d="M 411 17.71875 L 794 17.71875 L 794 420 L 411 420 Z M 411 17.71875 "/>
</clipPath>
</defs>
<g id="surface1">
<path style=" stroke:none;fill-rule:nonzero;fill:rgb(45.489502%,79.998779%,81.17981%);fill-opacity:1;" d="M 270.707031 777.15625 C 272.121094 730.835938 268.929688 684.617188 271.195312 638.246094 C 272.171875 618.453125 267.882812 588.625 277.753906 570.613281 C 263.835938 600.265625 209.546875 703.121094 164.992188 686.75 C 139.347656 677.324219 124.289062 633.882812 111.78125 611.558594 C 100.53125 591.488281 97.6875 569.582031 86.347656 550.960938 C 102.78125 539.703125 124.65625 535.25 139.347656 521.8125 C 161.851562 537.9375 161.378906 578.710938 182.90625 591.085938 C 192.9375 583.003906 195.832031 570.175781 202.566406 560.035156 C 209.265625 549.949219 219.628906 542.84375 227.878906 534.429688 C 241.3125 520.746094 255.757812 500.328125 272.261719 490.902344 C 305.492188 471.929688 372.535156 471.320312 411.332031 473.292969 C 455.574219 475.542969 470 492.945312 495.417969 526.28125 C 515.390625 552.476562 538.210938 571.992188 554.851562 599.917969 C 580.21875 581.851562 602.546875 548.832031 617.359375 521.550781 C 634.210938 539.371094 644.644531 554.257812 665.523438 567.453125 C 652.355469 580.980469 636.878906 608.136719 617.707031 622.972656 C 600.960938 635.921875 581.179688 652.066406 561.378906 658.246094 C 525.597656 669.433594 510.421875 650.917969 488.648438 627.441406 C 474.660156 612.359375 453.882812 603.949219 444.582031 588.101562 C 442.679688 621.820312 445.054688 650.304688 440.867188 684.652344 C 437.097656 715.632812 443.101562 750.90625 443.101562 782.621094 Z M 270.707031 777.15625 "/>
<path style=" stroke:none;fill-rule:nonzero;fill:rgb(0.389099%,0.389099%,0.389099%);fill-opacity:1;" d="M 443.101562 791.382812 C 443.011719 791.382812 442.90625 791.382812 442.820312 791.382812 L 270.410156 785.882812 C 265.597656 785.726562 261.828125 781.714844 261.96875 776.878906 C 262.613281 755.882812 262.300781 734.449219 261.984375 713.730469 C 261.617188 688.914062 261.234375 663.238281 262.472656 637.808594 C 262.71875 632.710938 262.59375 626.933594 262.492188 620.859375 C 262.457031 619.832031 262.4375 618.820312 262.421875 617.773438 C 237.945312 658.472656 198.992188 708.441406 161.988281 694.933594 C 138.699219 686.382812 124.289062 656.625 112.707031 632.730469 C 109.671875 626.480469 106.863281 620.652344 104.175781 615.835938 C 98.332031 605.414062 94.703125 594.804688 91.199219 584.539062 C 87.621094 574.121094 84.273438 564.3125 78.898438 555.515625 C 76.472656 551.535156 77.589844 546.386719 81.429688 543.75 C 89.15625 538.464844 97.757812 534.65625 106.042969 530.976562 C 116.386719 526.386719 126.140625 522.058594 133.449219 515.355469 C 136.503906 512.5625 141.089844 512.300781 144.421875 514.707031 C 157.699219 524.222656 163.960938 540.242188 169.507812 554.363281 C 173.3125 564.050781 176.941406 573.316406 182.140625 579.21875 C 184.597656 575.8125 186.550781 571.78125 188.558594 567.609375 C 190.632812 563.351562 192.726562 559.09375 195.308594 555.199219 C 200.367188 547.554688 206.910156 541.761719 213.226562 536.140625 C 216.121094 533.574219 219.019531 531.011719 221.667969 528.304688 C 225.507812 524.394531 229.414062 519.925781 233.460938 515.320312 C 244.050781 503.222656 255.023438 490.710938 267.953125 483.328125 C 305.808594 461.71875 381.171875 463.027344 411.804688 464.601562 C 459.097656 467.007812 475.390625 485.597656 502.378906 520.992188 C 510.003906 530.976562 518.21875 540.191406 526.171875 549.074219 C 536.746094 560.910156 547.613281 573.074219 557.085938 587.140625 C 580.65625 567.140625 599.863281 535.511719 609.71875 517.398438 C 611.042969 514.917969 613.484375 513.261719 616.261719 512.894531 C 619 512.527344 621.808594 513.523438 623.726562 515.546875 C 627.808594 519.875 631.523438 524.027344 635.101562 528.042969 C 645.953125 540.191406 655.335938 550.699219 670.183594 560.070312 C 672.414062 561.484375 673.882812 563.804688 674.179688 566.421875 C 674.507812 569.023438 673.621094 571.640625 671.769531 573.527344 C 667.164062 578.257812 661.964844 585.1875 656.472656 592.515625 C 646.804688 605.363281 635.867188 619.9375 623.027344 629.882812 L 619.035156 632.992188 C 602.476562 645.835938 583.726562 660.410156 563.976562 666.605469 C 524.34375 678.929688 505.152344 658.195312 484.828125 636.203125 L 482.265625 633.410156 C 476.890625 627.652344 470.070312 622.675781 463.457031 617.859375 C 459.796875 615.207031 456.097656 612.5 452.554688 609.621094 C 452.46875 615.222656 452.414062 620.738281 452.378906 626.21875 C 452.242188 644.980469 452.101562 664.40625 449.519531 685.734375 C 447.285156 704.183594 448.699219 724.917969 450.078125 744.992188 C 450.933594 757.46875 451.824219 770.351562 451.824219 782.636719 C 451.824219 785.011719 450.863281 787.261719 449.171875 788.902344 C 447.546875 790.507812 445.367188 791.382812 443.101562 791.382812 Z M 279.621094 768.710938 L 434.21875 773.648438 C 433.941406 764.800781 433.3125 755.707031 432.667969 746.210938 C 431.238281 725.339844 429.753906 703.746094 432.214844 683.660156 C 434.691406 663.308594 434.796875 645.261719 434.9375 626.132812 C 435.023438 613.671875 435.128906 601.070312 435.878906 587.664062 C 436.085938 583.824219 438.792969 580.597656 442.523438 579.671875 C 446.34375 578.832031 450.164062 580.4375 452.101562 583.738281 C 456.550781 591.292969 464.871094 597.332031 473.714844 603.757812 C 481.007812 609.046875 488.542969 614.527344 495.050781 621.558594 L 497.652344 624.351562 C 517.644531 645.976562 529.785156 659.050781 558.777344 649.957031 C 575.527344 644.71875 592.953125 631.175781 608.359375 619.21875 L 612.371094 616.097656 C 623.359375 607.613281 633.546875 594.035156 642.53125 582.0625 C 645.953125 577.507812 649.285156 573.089844 652.492188 569.109375 C 640.210938 559.984375 631.367188 550.070312 622.105469 539.683594 C 621.09375 538.585938 620.097656 537.449219 619.070312 536.316406 C 606.246094 558.21875 585.226562 589.042969 559.929688 607.054688 C 557.957031 608.453125 555.480469 608.957031 553.074219 608.488281 C 550.683594 607.996094 548.625 606.515625 547.371094 604.417969 C 537.667969 588.152344 525.773438 574.851562 513.160156 560.75 C 504.976562 551.605469 496.515625 542.144531 488.492188 531.621094 C 462.742188 497.847656 450.722656 484.058594 410.894531 482.035156 C 388.234375 480.9375 311.390625 478.648438 276.585938 498.511719 C 266.207031 504.445312 256.226562 515.824219 246.5625 526.839844 C 242.308594 531.691406 238.15625 536.421875 234.089844 540.558594 C 231.160156 543.542969 227.984375 546.371094 224.792969 549.214844 C 219.050781 554.3125 213.628906 559.128906 209.839844 564.851562 C 207.679688 568.117188 205.96875 571.675781 204.257812 575.238281 C 200.578125 582.828125 196.410156 591.417969 188.382812 597.890625 C 185.59375 600.160156 181.667969 600.457031 178.5625 598.660156 C 165.078125 590.910156 159.058594 575.570312 153.25 560.734375 C 149.132812 550.191406 145.191406 540.136719 139.050781 533.246094 C 130.988281 539.003906 121.953125 543.035156 113.144531 546.925781 C 107.824219 549.285156 102.730469 551.554688 98.019531 554.101562 C 102.011719 562.234375 104.910156 570.664062 107.71875 578.886719 C 111.136719 588.851562 114.363281 598.257812 119.421875 607.300781 C 122.265625 612.359375 125.25 618.523438 128.460938 625.121094 C 138.664062 646.203125 151.367188 672.4375 168.042969 678.5625 C 198.414062 689.800781 243.511719 621.699219 267.984375 570.925781 C 268.632812 569.371094 269.347656 567.871094 270.148438 566.421875 C 272.433594 562.269531 277.617188 560.75 281.75 562.84375 C 285.953125 564.976562 287.699219 570.054688 285.691406 574.328125 C 285.203125 575.394531 284.613281 576.617188 283.929688 578.03125 C 279.378906 589.304688 279.691406 605.832031 279.953125 620.5625 C 280.09375 627.058594 280.199219 633.234375 279.917969 638.679688 C 278.714844 663.570312 279.082031 688.945312 279.464844 713.488281 C 279.710938 731.570312 279.972656 750.175781 279.621094 768.710938 Z M 279.621094 768.710938 "/>
<path style=" stroke:none;fill-rule:nonzero;fill:rgb(98.81897%,74.899292%,58.428955%);fill-opacity:1;" d="M 138.019531 521.585938 C 132.472656 513.992188 122.390625 502.542969 114.589844 500.535156 C 104.210938 497.867188 89.035156 498.496094 78.359375 498.199219 C 69.113281 497.9375 59.605469 497.742188 50.359375 498.179688 C 40.957031 498.617188 29.144531 494.183594 20.335938 497.515625 C 17.875 508.425781 34.1875 520.3125 42.789062 522.441406 C 54.300781 525.269531 63.703125 531.832031 75.390625 535.636719 C 84.601562 538.636719 93.203125 540.695312 102.886719 539.109375 C 116.421875 536.839844 125.058594 527.832031 138.019531 521.585938 Z M 138.019531 521.585938 "/>
<path style=" stroke:none;fill-rule:nonzero;fill:rgb(0.389099%,0.389099%,0.389099%);fill-opacity:1;" d="M 96.082031 548.375 C 87.324219 548.375 79.542969 546.140625 72.707031 543.925781 C 67.105469 542.109375 61.976562 539.703125 56.953125 537.328125 C 51.441406 534.726562 46.222656 532.25 40.675781 530.886719 C 28.847656 527.972656 7.949219 512.875 11.824219 495.597656 C 12.46875 492.734375 14.507812 490.378906 17.265625 489.347656 C 24.765625 486.519531 32.859375 487.601562 40.03125 488.617188 C 43.449219 489.070312 46.835938 489.644531 49.957031 489.472656 C 59.429688 489.035156 69.164062 489.226562 78.636719 489.488281 L 86.121094 489.59375 C 96.222656 489.664062 107.664062 489.75 116.789062 492.105469 C 128.425781 495.125 140.425781 510.136719 145.066406 516.453125 C 146.601562 518.546875 147.125 521.203125 146.5 523.730469 C 145.871094 526.246094 144.160156 528.355469 141.824219 529.472656 C 137.496094 531.515625 133.730469 533.941406 130.046875 536.265625 C 122.527344 541.027344 114.765625 545.96875 104.296875 547.679688 C 101.472656 548.167969 98.734375 548.375 96.082031 548.375 Z M 31.710938 505.144531 C 35.023438 508.898438 40.589844 512.875 44.863281 513.941406 C 52.085938 515.722656 58.347656 518.671875 64.402344 521.550781 C 68.796875 523.609375 73.230469 525.738281 78.113281 527.328125 C 86.941406 530.191406 93.953125 531.691406 101.457031 530.488281 C 108.414062 529.351562 114.121094 525.738281 120.714844 521.53125 C 122.023438 520.695312 123.347656 519.855469 124.710938 519.019531 C 119.527344 513.292969 114.835938 509.59375 112.410156 508.984375 C 105.378906 507.167969 95.070312 507.097656 85.964844 507.027344 L 78.132812 506.925781 C 69.042969 506.644531 59.761719 506.46875 50.777344 506.871094 C 46.46875 507.117188 41.949219 506.488281 37.640625 505.878906 C 35.652344 505.597656 33.609375 505.335938 31.710938 505.144531 Z M 31.710938 505.144531 "/>
<path style=" stroke:none;fill-rule:nonzero;fill:rgb(98.81897%,74.899292%,58.428955%);fill-opacity:1;" d="M 629.082031 527.433594 C 635.207031 523.765625 637.699219 515.964844 644.644531 512.457031 C 653.664062 507.882812 661.566406 507.152344 671.175781 505.5625 C 684.417969 503.382812 696.683594 502.230469 710.078125 501.566406 C 716.117188 501.269531 728.640625 496.765625 734.328125 499.019531 C 752.15625 506.050781 718.382812 523.3125 712.226562 525.546875 C 694.5 531.933594 678.035156 539.300781 662.246094 549.5625 C 652.84375 555.671875 653.226562 556.648438 644.714844 548.742188 C 639.359375 543.785156 633.601562 537.257812 629.082031 527.433594 Z M 629.082031 527.433594 "/>
<path style=" stroke:none;fill-rule:nonzero;fill:rgb(0.389099%,0.389099%,0.389099%);fill-opacity:1;" d="M 652.808594 563.125 C 648.339844 563.125 644.417969 560.367188 638.746094 555.113281 C 633.863281 550.59375 626.746094 543.175781 621.144531 531.0625 C 619.277344 527.03125 620.777344 522.195312 624.597656 519.910156 C 626.082031 519.019531 627.566406 517.152344 629.273438 514.988281 C 631.941406 511.621094 635.292969 507.378906 640.664062 504.65625 C 649.683594 500.066406 657.585938 498.84375 665.925781 497.535156 L 669.746094 496.941406 C 682.445312 494.847656 694.746094 493.589844 709.625 492.855469 C 711.371094 492.753906 713.742188 492.195312 716.324219 491.652344 C 723.703125 490.097656 731.363281 488.457031 737.503906 490.902344 C 747.253906 494.742188 748.199219 501.757812 748.164062 504.585938 C 747.9375 520.871094 715.488281 533.609375 715.15625 533.734375 C 695.898438 540.660156 680.582031 548.011719 666.957031 556.859375 L 664.84375 558.238281 C 659.90625 561.554688 656.210938 563.125 652.808594 563.125 Z M 640.003906 529.457031 C 643.542969 535.375 647.433594 539.371094 650.609375 542.320312 C 651.308594 542.984375 652.457031 544.066406 653.453125 544.886719 C 653.976562 544.535156 654.550781 544.136719 655.265625 543.679688 L 657.484375 542.234375 C 672.257812 532.632812 688.710938 524.710938 709.277344 517.308594 C 713.238281 515.878906 721.347656 511.390625 726.496094 507.519531 C 724.140625 507.832031 721.679688 508.355469 719.972656 508.703125 C 716.34375 509.472656 712.976562 510.136719 710.515625 510.257812 C 696.316406 510.972656 684.628906 512.160156 672.589844 514.148438 L 668.628906 514.777344 C 661.078125 515.949219 655.109375 516.890625 648.570312 520.222656 C 646.613281 521.21875 644.921875 523.367188 642.984375 525.808594 C 642.042969 526.996094 641.085938 528.21875 640.003906 529.457031 Z M 640.003906 529.457031 "/>
<path style=" stroke:none;fill-rule:nonzero;fill:rgb(98.81897%,74.899292%,58.428955%);fill-opacity:1;" d="M 328.433594 359.355469 C 321.753906 375.671875 316.554688 388.484375 316.746094 404.402344 C 316.886719 415.972656 319.605469 425.679688 323.652344 436.464844 C 328.972656 450.617188 333.25 467.269531 343.664062 478.648438 C 367.089844 504.253906 398.074219 484.566406 418.449219 466.238281 C 432.582031 453.535156 439.382812 433.671875 442 415.835938 C 444.09375 401.574219 448.230469 384.503906 440.394531 371.660156 C 425.515625 347.3125 405.890625 339.738281 377.507812 339.773438 C 353.082031 339.804688 341.796875 342.234375 328.433594 359.355469 Z M 328.433594 359.355469 "/>
<path style=" stroke:none;fill-rule:nonzero;fill:rgb(0.389099%,0.389099%,0.389099%);fill-opacity:1;" d="M 369.726562 499.542969 C 354.375 499.542969 343.699219 491.652344 337.207031 484.566406 C 327.632812 474.078125 322.765625 460.167969 318.472656 447.878906 C 317.476562 445.050781 316.519531 442.257812 315.488281 439.535156 C 311.703125 429.5 308.195312 418.277344 308.023438 404.507812 C 307.796875 386.722656 313.605469 372.515625 320.355469 356.039062 C 320.671875 355.304688 321.070312 354.605469 321.542969 353.980469 C 336.929688 334.273438 350.625 331.0625 377.453125 331.042969 C 377.507812 331.042969 377.558594 331.042969 377.609375 331.042969 C 411.386719 331.042969 432.390625 341.832031 447.808594 367.105469 C 456.359375 381.117188 453.621094 398.136719 451.421875 411.820312 L 450.601562 417.109375 C 448.140625 433.863281 441.582031 457.128906 424.242188 472.75 C 401.894531 492.855469 383.839844 499.542969 369.726562 499.542969 Z M 336.023438 363.804688 C 329.757812 379.128906 325.292969 390.40625 325.46875 404.296875 C 325.589844 414.769531 328.085938 423.496094 331.800781 433.390625 C 332.882812 436.203125 333.894531 439.132812 334.941406 442.101562 C 338.867188 453.324219 342.914062 464.914062 350.082031 472.75 C 364.457031 488.476562 385.480469 484.128906 412.605469 459.746094 C 426.773438 447.007812 431.691406 425.957031 433.332031 414.578125 L 434.203125 409.0625 C 436.121094 397.089844 438.128906 384.730469 432.929688 376.230469 C 420.769531 356.300781 405.246094 348.515625 377.609375 348.515625 C 377.578125 348.515625 377.523438 348.515625 377.472656 348.515625 C 354.742188 348.535156 346.714844 350.46875 336.023438 363.804688 Z M 336.023438 363.804688 "/>
<path style=" stroke:none;fill-rule:nonzero;fill:rgb(99.609375%,74.899292%,6.269836%);fill-opacity:1;" d="M 543.113281 34.4375 C 503.964844 34.542969 457.054688 63.082031 436.628906 100.710938 C 420.890625 129.683594 416.023438 177.226562 425.183594 209.324219 C 434.585938 242.222656 452.519531 267.914062 479.507812 285.839844 C 500.773438 299.960938 525.71875 309.820312 549.304688 314.832031 C 551.625 337.625 550.421875 338.566406 548.992188 353.105469 C 547.753906 365.550781 538.035156 381.46875 530.761719 391.136719 C 524.34375 399.691406 514.765625 403.128906 506.636719 410.492188 C 572.925781 414.734375 607.03125 384.3125 613.957031 321.042969 C 631.035156 319.019531 687.925781 309.714844 703.347656 304.078125 C 733.980469 292.910156 742.039062 269.03125 761.804688 241.890625 C 788.757812 204.890625 792.71875 142.023438 771.539062 101.546875 C 749.140625 58.753906 712.050781 38.402344 661.164062 29.550781 C 627.285156 23.652344 635.273438 28.609375 600.648438 29.535156 C 581.769531 30.039062 560.785156 34.699219 543.113281 34.4375 Z M 543.113281 34.4375 "/>
<g clip-path="url(#clip1)" clip-rule="nonzero">
<path style=" stroke:none;fill-rule:nonzero;fill:rgb(0.389099%,0.389099%,0.389099%);fill-opacity:1;" d="M 518.324219 419.605469 C 514.328125 419.605469 510.265625 419.464844 506.078125 419.203125 C 502.585938 418.976562 499.570312 416.6875 498.417969 413.390625 C 497.265625 410.09375 498.191406 406.410156 500.792969 404.035156 C 504.417969 400.753906 508.292969 398.152344 512.09375 395.621094 C 516.824219 392.5 520.871094 389.8125 523.800781 385.917969 C 530.796875 376.582031 539.34375 362.183594 540.304688 352.269531 L 541.070312 345.410156 C 541.910156 338.0625 542.328125 334.464844 541.230469 321.933594 C 517.554688 316.121094 494.144531 306 474.710938 293.117188 C 446.363281 274.304688 426.894531 246.917969 416.84375 211.730469 C 406.953125 177.070312 412.152344 127.554688 428.988281 96.554688 C 450.847656 56.292969 499.902344 25.851562 543.128906 25.730469 L 543.148438 25.730469 C 543.636719 25.695312 544.140625 25.730469 544.628906 25.730469 C 553.179688 25.730469 562.632812 24.578125 572.613281 23.355469 C 581.804688 22.238281 591.296875 21.070312 600.453125 20.808594 C 612.804688 20.476562 619.433594 19.636719 624.773438 18.957031 C 635.328125 17.632812 640.925781 17.175781 662.734375 20.949219 C 720.199219 30.949219 757.234375 55.277344 779.335938 97.5 C 802.03125 140.886719 797.359375 207.980469 768.90625 247.039062 C 764.300781 253.339844 760.355469 259.484375 756.605469 265.296875 C 744.183594 284.566406 732.460938 302.753906 706.363281 312.265625 C 691.257812 317.78125 643.300781 325.773438 621.808594 328.792969 C 612.980469 389.113281 578.230469 419.605469 518.324219 419.605469 Z M 543.078125 43.167969 C 506.375 43.304688 463.003906 70.394531 444.285156 104.882812 C 429.632812 131.847656 424.941406 176.6875 433.574219 206.933594 C 442.472656 238.015625 459.535156 262.121094 484.324219 278.5625 C 503.6875 291.40625 527.414062 301.25 551.101562 306.277344 C 554.820312 307.0625 557.59375 310.171875 557.976562 313.921875 C 559.894531 332.824219 559.527344 337.554688 558.378906 347.382812 L 557.644531 353.960938 C 556.023438 370.453125 543.164062 389.113281 537.703125 396.375 C 536.308594 398.242188 534.808594 399.898438 533.238281 401.398438 C 576.675781 396.738281 599.757812 370.421875 605.269531 320.085938 C 605.707031 316.050781 608.882812 312.839844 612.910156 312.371094 C 631.019531 310.222656 686.164062 301.042969 700.328125 295.875 C 720.914062 288.371094 729.707031 274.722656 741.863281 255.855469 C 745.808594 249.765625 749.925781 243.359375 754.722656 236.761719 C 779.652344 202.535156 783.714844 143.679688 763.792969 105.597656 C 744.167969 68.070312 712.050781 47.269531 659.664062 38.140625 C 639.601562 34.667969 635.605469 35.15625 626.902344 36.273438 C 621.492188 36.96875 614.078125 37.914062 600.875 38.261719 C 592.535156 38.488281 583.464844 39.589844 574.671875 40.671875 C 564.117188 41.980469 553.195312 43.410156 543.078125 43.167969 Z M 543.078125 43.167969 "/>
</g>
<path style=" stroke:none;fill-rule:nonzero;fill:rgb(92.939758%,13.328552%,14.118958%);fill-opacity:1;" d="M 564.292969 123.679688 C 562.023438 112.125 573.414062 80.953125 599.652344 75.804688 C 619.714844 71.878906 642.289062 71.25 656.246094 88.003906 C 667.742188 101.808594 669.640625 124.464844 664.214844 140.523438 C 659.472656 154.554688 651.605469 163.296875 640.824219 171.730469 C 632.464844 178.273438 618.003906 184 614.253906 194.210938 C 611.460938 201.820312 611.722656 215.640625 611.496094 223.6875 C 599.234375 224.664062 589.183594 225.519531 580.289062 224.804688 C 579.382812 213.636719 578.769531 206.777344 578.457031 202.480469 C 577.445312 188.902344 587.773438 169.425781 599.214844 162.742188 C 608.460938 157.347656 612.980469 150.46875 620.726562 143.070312 C 627.40625 136.699219 632.464844 125.234375 629.519531 116.210938 C 627.597656 110.328125 619.46875 105.5625 613.347656 105.613281 C 603.578125 105.683594 593.496094 118.460938 594.855469 126.453125 C 588.105469 127.554688 571.511719 125.496094 564.292969 123.679688 Z M 564.292969 123.679688 "/>
<path style=" stroke:none;fill-rule:nonzero;fill:rgb(0.389099%,0.389099%,0.389099%);fill-opacity:1;" d="M 587.335938 233.8125 C 584.667969 233.8125 582.101562 233.722656 579.625 233.53125 C 575.367188 233.183594 571.984375 229.8125 571.636719 225.539062 L 569.785156 203.144531 C 568.566406 186.425781 580.496094 163.578125 594.871094 155.199219 C 600.140625 152.128906 603.578125 148.464844 607.902344 143.804688 C 610.03125 141.535156 612.230469 139.179688 614.761719 136.753906 C 619.3125 132.40625 623.027344 124.203125 621.285156 118.898438 C 620.707031 117.132812 616.363281 114.324219 613.503906 114.324219 L 613.488281 114.324219 C 612.003906 114.324219 609.386719 115.597656 606.875 118.410156 C 604.101562 121.550781 603.457031 124.324219 603.523438 124.988281 C 604.03125 129.613281 600.910156 134.308594 596.304688 135.058594 C 587.492188 136.457031 569.175781 133.855469 562.234375 132.144531 C 558.953125 131.324219 556.441406 128.671875 555.796875 125.355469 C 554.101562 116.75 557.261719 104.007812 563.835938 92.890625 C 572.019531 79.066406 584.160156 69.957031 598.046875 67.234375 C 609.140625 65.054688 643.054688 58.421875 663.011719 82.417969 C 677.753906 100.082031 678.292969 126.367188 672.554688 143.316406 C 666.605469 160.941406 655.929688 171.046875 646.28125 178.589844 C 643.613281 180.683594 640.371094 182.707031 637.019531 184.800781 C 630.984375 188.554688 624.144531 192.796875 622.523438 197.210938 C 620.671875 202.273438 620.480469 212.796875 620.378906 219.742188 L 620.289062 223.914062 C 620.167969 228.367188 616.695312 232.011719 612.246094 232.378906 C 602.582031 233.164062 594.558594 233.8125 587.335938 233.8125 Z M 613.453125 96.886719 C 622.628906 96.886719 634.578125 103.519531 637.839844 113.503906 C 642.167969 126.785156 635.136719 141.410156 626.761719 149.40625 C 624.496094 151.570312 622.539062 153.699219 620.621094 155.742188 C 615.929688 160.75 611.097656 165.933594 603.613281 170.296875 C 595.03125 175.308594 586.410156 191.816406 587.160156 201.855469 L 588.332031 216.359375 C 592.742188 216.324219 597.542969 216.027344 602.914062 215.625 C 603.105469 207.335938 603.578125 197.980469 606.054688 191.222656 C 609.753906 181.171875 619.3125 175.238281 627.738281 170 C 630.511719 168.273438 633.214844 166.613281 635.449219 164.871094 C 644.695312 157.625 651.726562 150.242188 655.949219 137.746094 C 660.203125 125.179688 659.402344 105.441406 649.546875 93.625 C 640.4375 82.699219 625.175781 79.765625 601.308594 84.390625 C 589.882812 86.625 582.75 95.089844 578.769531 101.808594 C 575.59375 107.1875 573.851562 112.527344 573.117188 116.539062 C 577.6875 117.257812 582.976562 117.816406 587.230469 118.007812 C 588.382812 114.464844 590.390625 110.921875 593.109375 107.65625 C 598.78125 100.886719 606.140625 96.976562 613.292969 96.921875 C 613.363281 96.886719 613.398438 96.886719 613.453125 96.886719 Z M 613.453125 96.886719 "/>
<path style=" stroke:none;fill-rule:nonzero;fill:rgb(92.939758%,13.328552%,14.118958%);fill-opacity:1;" d="M 587.683594 254.128906 C 577.984375 254.914062 573.015625 275.140625 578.507812 282.035156 C 582.382812 286.886719 589.8125 288.40625 595.917969 288.371094 C 602.6875 288.335938 610.554688 287.707031 614.585938 275.648438 C 615.5625 272.714844 614.898438 265.523438 609.945312 260.757812 C 602.984375 254.039062 598.101562 249.554688 587.683594 254.128906 Z M 587.683594 254.128906 "/>
<path style=" stroke:none;fill-rule:nonzero;fill:rgb(0.389099%,0.389099%,0.389099%);fill-opacity:1;" d="M 595.710938 297.097656 C 585.3125 297.097656 576.574219 293.605469 571.6875 287.480469 C 565.722656 280.011719 566.890625 267.582031 570.5 259.207031 C 573.765625 251.667969 579.101562 246.8125 585.328125 245.644531 C 600.613281 239.519531 609.125 247.808594 616.015625 254.476562 C 623.273438 261.492188 624.964844 272.035156 622.871094 278.386719 C 616.679688 296.957031 602.183594 297.046875 595.988281 297.097656 C 595.882812 297.097656 595.796875 297.097656 595.710938 297.097656 Z M 588.714844 262.800781 C 588.085938 263.253906 586.671875 265.089844 585.714844 268.402344 C 584.542969 272.503906 584.945312 275.890625 585.398438 276.730469 C 586.796875 278.457031 591.261719 279.644531 595.867188 279.660156 C 601.695312 279.625 604.152344 279.347656 606.300781 272.90625 C 606.332031 272.488281 606.070312 269.171875 603.875 267.042969 C 596.949219 260.339844 595.953125 260.027344 591.175781 262.136719 C 590.371094 262.46875 589.550781 262.695312 588.714844 262.800781 Z M 587.667969 254.128906 L 587.84375 254.128906 Z M 587.667969 254.128906 "/>
</g>
</svg>
